<?xml version="1.0" encoding="UTF-8"?>
<!DOCTYPE svg PUBLIC "-//W3C//DTD SVG 1.1//EN" "http://www.w3.org/Graphics/SVG/1.1/DTD/svg11.dtd">
<svg version="1.2" width="88.9mm" height="88.9mm" viewBox="0 0 8890 8890" preserveAspectRatio="xMidYMid" fill-rule="evenodd" stroke-width="28.222" stroke-linejoin="round" xmlns="http://www.w3.org/2000/svg" xmlns:ooo="http://xml.openoffice.org/svg/export" xmlns:xlink="http://www.w3.org/1999/xlink" xmlns:presentation="http://sun.com/xmlns/staroffice/presentation" xmlns:smil="http://www.w3.org/2001/SMIL20/" xmlns:anim="urn:oasis:names:tc:opendocument:xmlns:animation:1.0" xml:space="preserve">
 <defs class="ClipPathGroup">
  <clipPath id="presentation_clip_path" clipPathUnits="userSpaceOnUse">
   <rect x="0" y="0" width="8890" height="8890"/>
  </clipPath>
  <clipPath id="presentation_clip_path_shrink" clipPathUnits="userSpaceOnUse">
   <rect x="8" y="8" width="8873" height="8873"/>
  </clipPath>
 </defs>
 <defs class="TextShapeIndex">
  <g ooo:slide="id1" ooo:id-list="id3 id4 id5 id6 id7 id8 id9 id10 id11 id12 id13 id14 id15 id16 id17 id18 id19"/>
 </defs>
 <defs class="EmbeddedBulletChars">
  <g id="bullet-char-template-57356" transform="scale(0.00048828125,-0.00048828125)">
   <path d="M 580,1141 L 1163,571 580,0 -4,571 580,1141 Z"/>
  </g>
  <g id="bullet-char-template-57354" transform="scale(0.00048828125,-0.00048828125)">
   <path d="M 8,1128 L 1137,1128 1137,0 8,0 8,1128 Z"/>
  </g>
  <g id="bullet-char-template-10146" transform="scale(0.00048828125,-0.00048828125)">
   <path d="M 174,0 L 602,739 174,1481 1456,739 174,0 Z M 1358,739 L 309,1346 659,739 1358,739 Z"/>
  </g>
  <g id="bullet-char-template-10132" transform="scale(0.00048828125,-0.00048828125)">
   <path d="M 2015,739 L 1276,0 717,0 1260,543 174,543 174,936 1260,936 717,1481 1274,1481 2015,739 Z"/>
  </g>
  <g id="bullet-char-template-10007" transform="scale(0.00048828125,-0.00048828125)">
   <path d="M 0,-2 C -7,14 -16,27 -25,37 L 356,567 C 262,823 215,952 215,954 215,979 228,992 255,992 264,992 276,990 289,987 310,991 331,999 354,1012 L 381,999 492,748 772,1049 836,1024 860,1049 C 881,1039 901,1025 922,1006 886,937 835,863 770,784 769,783 710,716 594,584 L 774,223 C 774,196 753,168 711,139 L 727,119 C 717,90 699,76 672,76 641,76 570,178 457,381 L 164,-76 C 142,-110 111,-127 72,-127 30,-127 9,-110 8,-76 1,-67 -2,-52 -2,-32 -2,-23 -1,-13 0,-2 Z"/>
  </g>
  <g id="bullet-char-template-10004" transform="scale(0.00048828125,-0.00048828125)">
   <path d="M 285,-33 C 182,-33 111,30 74,156 52,228 41,333 41,471 41,549 55,616 82,672 116,743 169,778 240,778 293,778 328,747 346,684 L 369,508 C 377,444 397,411 428,410 L 1163,1116 C 1174,1127 1196,1133 1229,1133 1271,1133 1292,1118 1292,1087 L 1292,965 C 1292,929 1282,901 1262,881 L 442,47 C 390,-6 338,-33 285,-33 Z"/>
  </g>
  <g id="bullet-char-template-9679" transform="scale(0.00048828125,-0.00048828125)">
   <path d="M 813,0 C 632,0 489,54 383,161 276,268 223,411 223,592 223,773 276,916 383,1023 489,1130 632,1184 813,1184 992,1184 1136,1130 1245,1023 1353,916 1407,772 1407,592 1407,412 1353,268 1245,161 1136,54 992,0 813,0 Z"/>
  </g>
  <g id="bullet-char-template-8226" transform="scale(0.00048828125,-0.00048828125)">
   <path d="M 346,457 C 273,457 209,483 155,535 101,586 74,649 74,723 74,796 101,859 155,911 209,963 273,989 346,989 419,989 480,963 531,910 582,859 608,796 608,723 608,648 583,586 532,535 482,483 420,457 346,457 Z"/>
  </g>
  <g id="bullet-char-template-8211" transform="scale(0.00048828125,-0.00048828125)">
   <path d="M -4,459 L 1135,459 1135,606 -4,606 -4,459 Z"/>
  </g>
  <g id="bullet-char-template-61548" transform="scale(0.00048828125,-0.00048828125)">
   <path d="M 173,740 C 173,903 231,1043 346,1159 462,1274 601,1332 765,1332 928,1332 1067,1274 1183,1159 1299,1043 1357,903 1357,740 1357,577 1299,437 1183,322 1067,206 928,148 765,148 601,148 462,206 346,322 231,437 173,577 173,740 Z"/>
  </g>
 </defs>
 <defs class="TextEmbeddedBitmaps"/>
 <g>
  <g id="id2" class="Master_Slide">
   <g id="bg-id2" class="Background"/>
   <g id="bo-id2" class="BackgroundObjects"/>
  </g>
 </g>
 <g class="SlideGroup">
  <g>
   <g id="container-id1">
    <g id="id1" class="Slide" clip-path="url(#presentation_clip_path)">
     <g class="Page">
      <g class="Group">
       <g class="com.sun.star.drawing.CustomShape">
        <g id="id3">
         <rect class="BoundingBox" stroke="none" fill="none" x="85" y="97" width="8748" height="8748"/>
         <path fill="rgb(255,255,255)" fill-opacity="0.98" stroke="rgb(255,255,255)" stroke-opacity="0.98" d="M 4458,203 C 6877,203 8725,2051 8725,4470 8725,6889 6877,8737 4458,8737 2039,8737 191,6889 191,4470 191,2051 2039,203 4458,203 Z M 191,203 L 191,203 Z M 8726,8738 L 8726,8738 Z"/>
         <path fill="none" stroke="rgb(255,255,255)" stroke-width="212" stroke-linejoin="round" d="M 4458,203 C 6877,203 8725,2051 8725,4470 8725,6889 6877,8737 4458,8737 2039,8737 191,6889 191,4470 191,2051 2039,203 4458,203 Z"/>
        </g>
       </g>
       <g class="Group">
        <g class="com.sun.star.drawing.CustomShape">
         <g id="id4">
          <rect class="BoundingBox" stroke="none" fill="none" x="174" y="173" width="8596" height="8596"/>
          <path fill="rgb(255,255,255)" fill-opacity="0.98" stroke="rgb(255,255,255)" stroke-opacity="0.98" d="M 4471,279 C 6847,279 8662,2094 8662,4470 8662,6846 6847,8661 4471,8661 2095,8661 280,6846 280,4470 280,2094 2095,279 4471,279 Z M 280,279 L 280,279 Z M 8663,8662 L 8663,8662 Z"/>
          <path fill="none" stroke="rgb(210,32,32)" stroke-width="212" stroke-linejoin="round" d="M 4471,279 C 6847,279 8662,2094 8662,4470 8662,6846 6847,8661 4471,8661 2095,8661 280,6846 280,4470 280,2094 2095,279 4471,279 Z"/>
         </g>
        </g>
        <g class="Graphic">
         <g id="id5">
          <rect class="BoundingBox" stroke="none" fill="none" x="1930" y="2691" width="5945" height="4370"/>
          <defs>
           <clipPath id="clip_path_1" clipPathUnits="userSpaceOnUse">
            <path d="M 1930,2691 L 7874,2691 7874,7060 1930,7060 1930,2691 Z"/>
           </clipPath>
          </defs>
          <g clip-path="url(#clip_path_1)">
           <path fill="rgb(255,112,88)" stroke="none" d="M 5767,3808 L 5767,6022 7774,6022 7774,5026 7540,4219 C 7470,3976 7246,3808 6992,3808 L 5767,3808 Z"/>
           <path fill="rgb(132,219,255)" stroke="none" d="M 7481,5016 L 7273,4296 C 7237,4173 7121,4086 6992,4086 L 6046,4086 6046,5016 7481,5016 7481,5016 Z"/>
           <path fill="rgb(205,214,224)" stroke="none" d="M 7482,5015 L 6046,5015 6046,4086 7482,5015 Z"/>
           <path fill="rgb(242,242,242)" stroke="none" d="M 7481,5016 L 7273,4296 C 7237,4173 7121,4086 6992,4086 L 6046,4086 7481,5016 7481,5016 Z"/>
           <path fill="rgb(255,209,92)" stroke="none" d="M 5397,2697 C 5601,2697 5767,2862 5767,3066 L 5767,6022 1936,6022 1936,3066 C 1936,2862 2102,2697 2307,2697 L 5397,2697 Z"/>
           <path fill="rgb(242,242,242)" stroke="none" d="M 4447,2697 L 4447,3674 4304,3531 4153,3681 4003,3531 3853,3681 3703,3531 3551,3681 3400,3531 3255,3676 3255,2697 4447,2697 Z"/>
           <path fill="rgb(51,74,94)" stroke="none" d="M 7868,6022 L 7868,6440 1936,6440 1936,6022 2555,6022 C 2700,5763 2978,5588 3297,5588 3615,5588 3893,5763 4038,6022 L 6031,6022 C 6175,5763 6452,5588 6771,5588 7090,5588 7366,5763 7512,6022 L 7868,6022 7868,6022 Z"/>
           <path fill="rgb(64,89,107)" stroke="none" d="M 6771,7028 C 6444,7028 6179,6763 6179,6437 6179,6111 6444,5847 6771,5847 7098,5847 7363,6111 7363,6437 7363,6763 7098,7028 6771,7028 Z"/>
           <path fill="rgb(172,179,186)" stroke="none" d="M 6771,6674 C 6640,6674 6533,6568 6533,6437 6533,6306 6639,6200 6771,6200 6902,6200 7009,6306 7009,6437 7009,6568 6902,6674 6771,6674 Z"/>
           <path fill="rgb(64,89,107)" stroke="none" d="M 3296,7028 C 2969,7028 2704,6763 2704,6437 2704,6111 2969,5847 3296,5847 3623,5847 3889,6111 3889,6437 3889,6763 3623,7028 3296,7028 Z"/>
           <path fill="rgb(172,179,186)" stroke="none" d="M 3296,6674 C 3165,6674 3059,6568 3059,6437 3059,6306 3165,6200 3296,6200 3428,6200 3534,6306 3534,6437 3534,6568 3428,6674 3296,6674 Z"/>
          </g>
         </g>
        </g>
        <g class="Graphic">
         <g id="id6">
          <rect class="BoundingBox" stroke="none" fill="none" x="152" y="659" width="3862" height="3862"/>
          <defs>
           <clipPath id="clip_path_2" clipPathUnits="userSpaceOnUse">
            <path d="M 152,659 L 4013,659 4013,4520 152,4520 152,659 Z"/>
           </clipPath>
          </defs>
          <g clip-path="url(#clip_path_2)">
           <path fill="rgb(246,131,141)" stroke="none" d="M 2665,3392 L 2282,2728 2665,2064 3432,2064 3815,2728 3432,3392 2665,3392 Z"/>
           <path fill="rgb(255,216,158)" stroke="none" d="M 2665,2064 L 2282,1400 2665,736 3432,736 3815,1400 3432,2064 2665,2064 Z"/>
           <path fill="rgb(155,198,255)" stroke="none" d="M 1515,2728 L 1131,2064 1515,1400 2282,1400 2665,2064 2282,2728 1515,2728 Z"/>
           <path fill="rgb(255,193,90)" stroke="none" d="M 748,4056 L 364,3392 748,2728 1515,2728 1898,3392 1515,4056 748,4056 Z"/>
           <path fill="rgb(0,0,0)" stroke="none" d="M 3521,2064 L 3882,1438 C 3896,1414 3896,1385 3882,1361 L 3498,697 C 3485,674 3459,659 3432,659 L 2665,659 C 2638,659 2612,674 2599,697 L 2237,1323 1558,1323 1350,973 C 1299,889 1168,967 1218,1052 L 1426,1401 1087,1987 680,1987 C 582,1987 582,2141 680,2141 L 1087,2141 1382,2651 748,2651 C 720,2651 695,2666 681,2690 L 298,3354 C 284,3378 284,3407 298,3431 L 659,4056 451,4405 C 401,4489 532,4569 583,4483 L 792,4133 1471,4133 1680,4483 C 1730,4569 1862,4489 1811,4405 L 1604,4056 1965,3431 C 1978,3407 1978,3378 1965,3354 L 1648,2805 2237,2805 2576,3392 2368,3740 C 2318,3825 2449,3904 2500,3819 L 2709,3469 3390,3469 3597,3819 C 3647,3904 3779,3825 3729,3741 L 3522,3390 3882,2767 C 3896,2743 3896,2714 3882,2690 L 3521,2064 Z M 2709,812 L 3388,812 3727,1400 3388,1987 2709,1987 2370,1400 2709,812 Z M 1559,1477 L 2237,1477 2576,2064 2237,2651 1559,2651 1220,2064 1559,1477 Z M 1470,3980 L 792,3980 453,3392 792,2805 1470,2805 1810,3392 1470,3980 Z M 3432,3239 L 3261,2951 C 3211,2866 3079,2944 3129,3029 L 3299,3316 2709,3316 2370,2728 2709,2141 3388,2141 3727,2728 3432,3239 Z"/>
           <path fill="rgb(0,0,0)" stroke="none" d="M 2972,2728 C 2972,2770 3007,2805 3049,2805 3089,2805 3123,2772 3125,2731 3127,2689 3092,2651 3049,2651 3007,2651 2972,2686 2972,2728 Z"/>
           <path fill="rgb(0,0,0)" stroke="none" d="M 372,2141 C 414,2141 449,2106 449,2064 449,2022 414,1987 372,1987 332,1987 298,2020 296,2061 294,2104 329,2141 372,2141 L 372,2141 Z"/>
           <path fill="rgb(0,0,0)" stroke="none" d="M 691,1651 L 691,1489 789,1489 789,1651 C 789,1717 919,1717 919,1651 L 919,1233 C 919,1167 789,1167 789,1233 L 789,1377 691,1377 691,1233 C 691,1167 561,1167 561,1233 L 561,1651 C 561,1671 589,1692 585,1690 619,1709 691,1701 691,1651 Z M 585,1690 C 607,1703 593,1695 586,1690 582,1688 575,1684 585,1690 Z"/>
           <path fill="rgb(0,0,0)" stroke="none" d="M 2932,3673 C 2900,3701 2883,3745 2883,3802 L 2883,3982 C 2883,4040 2900,4083 2932,4111 2997,4167 3117,4167 3182,4111 3214,4083 3231,4040 3231,3982 L 3231,3802 C 3231,3745 3214,3701 3182,3673 3117,3617 2997,3617 2932,3673 Z M 3182,3673 C 3150,3646 3214,3701 3182,3673 Z M 3013,3802 C 3013,3735 3101,3735 3101,3802 L 3101,3982 C 3101,4049 3013,4049 3013,3982 L 3013,3802 Z"/>
           <path fill="rgb(0,0,0)" stroke="none" d="M 2024,1166 C 2058,1138 2075,1101 2075,1055 2075,979 1951,965 1946,1039 1942,1104 1857,1100 1857,1035 L 1857,856 C 1857,794 1941,786 1946,847 1948,920 2075,907 2075,831 2075,787 2058,751 2024,724 1956,671 1842,670 1777,727 1744,755 1728,799 1728,856 L 1728,1035 C 1728,1092 1744,1136 1776,1164 1842,1221 1957,1220 2024,1166 Z"/>
          </g>
         </g>
        </g>
        <g class="Group">
         <g class="com.sun.star.drawing.ClosedBezierShape">
          <g id="id7">
           <rect class="BoundingBox" stroke="none" fill="none" x="2225" y="7178" width="349" height="677"/>
           <path fill="rgb(210,32,32)" stroke="none" d="M 2573,7522 C 2573,7563 2567,7596 2555,7626 2542,7653 2524,7670 2501,7680 2478,7689 2451,7685 2419,7674 L 2315,7630 2315,7854 2226,7815 2226,7178 2415,7260 C 2466,7279 2505,7311 2533,7357 2560,7403 2573,7458 2573,7522 Z M 2485,7491 C 2485,7424 2459,7379 2406,7359 L 2315,7321 2315,7528 2408,7566 C 2432,7577 2451,7575 2464,7561 2477,7548 2485,7525 2485,7491 Z"/>
          </g>
         </g>
         <g class="com.sun.star.drawing.ClosedBezierShape">
          <g id="id8">
           <rect class="BoundingBox" stroke="none" fill="none" x="2636" y="7343" width="393" height="766"/>
           <path fill="rgb(210,32,32)" stroke="none" d="M 2926,8079 L 2828,7805 2724,7770 2724,8012 2636,7980 2636,7343 2847,7416 C 2898,7432 2937,7460 2965,7502 2992,7543 3006,7594 3006,7655 3006,7700 2997,7735 2981,7761 2964,7791 2941,7804 2912,7807 L 3027,8108 2926,8079 Z M 2916,7633 C 2916,7572 2891,7534 2837,7518 L 2724,7479 2724,7667 2840,7706 C 2864,7715 2884,7713 2897,7699 2909,7685 2916,7664 2916,7633 Z"/>
          </g>
         </g>
         <g class="com.sun.star.drawing.ClosedBezierShape">
          <g id="id9">
           <rect class="BoundingBox" stroke="none" fill="none" x="3046" y="7475" width="367" height="698"/>
           <path fill="rgb(210,32,32)" stroke="none" d="M 3273,7637 C 3273,7815 3273,7993 3273,8172 3243,8165 3213,8157 3184,8150 3184,7971 3184,7793 3184,7615 3138,7603 3092,7592 3046,7579 3046,7544 3046,7510 3046,7475 3167,7509 3289,7538 3412,7564 3412,7599 3412,7632 3412,7667 3366,7657 3320,7648 3273,7637 Z"/>
          </g>
         </g>
         <g class="com.sun.star.drawing.ClosedBezierShape">
          <g id="id10">
           <rect class="BoundingBox" stroke="none" fill="none" x="3461" y="7576" width="398" height="702"/>
           <path fill="rgb(210,32,32)" stroke="none" d="M 3755,8263 L 3656,8006 3550,7989 3550,8231 3461,8213 3461,7576 3676,7614 C 3727,7623 3766,7645 3793,7681 3821,7717 3836,7766 3836,7827 3836,7872 3827,7908 3809,7939 3792,7971 3770,7987 3740,7993 L 3857,8277 3755,8263 Z M 3745,7819 C 3745,7758 3719,7725 3666,7716 L 3550,7697 3550,7885 3669,7905 C 3693,7908 3713,7903 3726,7888 3738,7873 3745,7850 3745,7819 Z"/>
          </g>
         </g>
         <g class="com.sun.star.drawing.ClosedBezierShape">
          <g id="id11">
           <rect class="BoundingBox" stroke="none" fill="none" x="4051" y="7700" width="193" height="616"/>
           <path fill="rgb(210,32,32)" stroke="none" d="M 4171,8315 C 4146,8314 4127,8301 4113,8280 4099,8258 4092,8228 4092,8187 L 4092,7898 4051,7895 4051,7809 4097,7812 4124,7700 4178,7703 4178,7818 4239,7821 4239,7907 4178,7904 4178,8158 C 4178,8181 4180,8197 4187,8210 4193,8223 4202,8229 4214,8229 4221,8229 4231,8228 4243,8223 L 4243,8302 C 4222,8312 4198,8315 4171,8315 Z"/>
          </g>
         </g>
         <g class="com.sun.star.drawing.ClosedBezierShape">
          <g id="id12">
           <rect class="BoundingBox" stroke="none" fill="none" x="4293" y="7817" width="194" height="498"/>
           <path fill="rgb(210,32,32)" stroke="none" d="M 4296,8313 L 4296,7938 C 4296,7912 4295,7887 4295,7869 4294,7852 4294,7836 4293,7823 L 4375,7824 C 4375,7830 4376,7845 4377,7874 4378,7903 4379,7922 4379,7931 L 4380,7929 C 4388,7896 4397,7871 4403,7856 4409,7842 4415,7835 4425,7827 4434,7819 4446,7817 4459,7817 4470,7817 4479,7818 4486,7823 L 4486,7931 C 4472,7925 4459,7923 4449,7922 4428,7922 4410,7937 4399,7961 4387,7986 4381,8024 4381,8074 L 4381,8314 4296,8313 Z"/>
          </g>
         </g>
         <g class="com.sun.star.drawing.ClosedBezierShape">
          <g id="id13">
           <rect class="BoundingBox" stroke="none" fill="none" x="4510" y="7813" width="336" height="510"/>
           <path fill="rgb(210,32,32)" stroke="none" d="M 4613,8321 C 4580,8323 4555,8310 4538,8285 4520,8260 4510,8224 4510,8177 4510,8126 4522,8087 4544,8062 4566,8034 4598,8021 4641,8018 L 4713,8012 4713,7988 C 4713,7956 4709,7934 4701,7918 4693,7902 4680,7896 4664,7896 4648,7897 4637,7902 4629,7915 4622,7925 4617,7942 4615,7967 L 4526,7963 C 4531,7915 4545,7878 4570,7852 4593,7827 4627,7814 4666,7814 4710,7813 4741,7824 4763,7855 4787,7884 4798,7926 4798,7982 L 4798,8161 C 4798,8187 4800,8205 4805,8217 4809,8228 4815,8233 4825,8231 4831,8231 4838,8230 4844,8227 L 4844,8295 C 4839,8298 4834,8301 4830,8301 4826,8304 4822,8305 4818,8305 4813,8306 4810,8309 4805,8310 4801,8310 4795,8311 4789,8311 4766,8313 4750,8305 4741,8289 4732,8276 4725,8253 4723,8221 L 4721,8222 C 4697,8288 4661,8321 4613,8321 Z M 4713,8082 L 4667,8085 C 4648,8088 4635,8091 4626,8097 4618,8101 4611,8110 4607,8122 4602,8133 4599,8148 4599,8165 4599,8189 4604,8206 4611,8217 4618,8227 4628,8234 4639,8233 4653,8233 4665,8227 4676,8215 4688,8205 4697,8189 4703,8170 4709,8151 4713,8129 4713,8107 L 4713,8082 Z"/>
          </g>
         </g>
         <g class="com.sun.star.drawing.ClosedBezierShape">
          <g id="id14">
           <rect class="BoundingBox" stroke="none" fill="none" x="4879" y="7781" width="304" height="519"/>
           <path fill="rgb(210,32,32)" stroke="none" d="M 5096,8277 L 5096,8003 C 5096,7917 5076,7876 5038,7881 5017,7884 5000,7897 4988,7924 4975,7952 4969,7989 4969,8029 L 4969,8292 4882,8299 4882,7919 C 4882,7892 4881,7872 4881,7854 4880,7837 4880,7822 4879,7809 L 4962,7802 C 4963,7808 4963,7824 4965,7849 4966,7873 4966,7889 4966,7900 L 4967,7900 C 4979,7860 4994,7831 5010,7814 5027,7795 5049,7784 5073,7782 5108,7779 5135,7788 5154,7818 5172,7848 5182,7892 5182,7955 L 5182,8266 5096,8277 Z"/>
          </g>
         </g>
         <g class="com.sun.star.drawing.ClosedBezierShape">
          <g id="id15">
           <rect class="BoundingBox" stroke="none" fill="none" x="5243" y="7730" width="300" height="516"/>
           <path fill="rgb(210,32,32)" stroke="none" d="M 5542,8060 C 5542,8107 5529,8146 5503,8179 5476,8213 5441,8233 5396,8241 5350,8249 5316,8244 5292,8226 5267,8210 5251,8178 5243,8136 L 5318,8108 C 5323,8128 5330,8143 5341,8152 5351,8161 5369,8161 5396,8156 5419,8152 5436,8144 5447,8133 5458,8122 5464,8107 5464,8088 5464,8072 5459,8060 5450,8053 5441,8045 5427,8041 5407,8038 5358,8032 5325,8026 5309,8016 5292,8007 5278,7993 5269,7975 5261,7955 5256,7933 5256,7905 5256,7859 5269,7821 5293,7790 5317,7761 5352,7742 5397,7733 5434,7726 5466,7730 5491,7749 5515,7768 5529,7796 5535,7838 L 5459,7866 C 5456,7846 5450,7832 5441,7825 5431,7816 5417,7814 5397,7818 5376,7822 5360,7830 5350,7838 5339,7847 5335,7860 5335,7878 5335,7892 5339,7903 5347,7910 5355,7916 5367,7921 5387,7924 5412,7927 5434,7930 5454,7936 5474,7942 5490,7945 5502,7955 5513,7964 5524,7977 5532,7994 5539,8010 5542,8032 5542,8060 Z"/>
          </g>
         </g>
         <g class="com.sun.star.drawing.ClosedBezierShape">
          <g id="id16">
           <rect class="BoundingBox" stroke="none" fill="none" x="5576" y="7484" width="199" height="701"/>
           <path fill="rgb(210,32,32)" stroke="none" d="M 5710,7761 L 5710,8163 5625,8184 5625,7781 5577,7792 5577,7706 5625,7695 5625,7644 C 5625,7599 5633,7565 5649,7539 5664,7514 5688,7497 5721,7491 5736,7487 5755,7485 5774,7484 L 5774,7566 C 5766,7564 5758,7566 5750,7567 5735,7570 5725,7579 5719,7588 5713,7598 5710,7615 5710,7637 L 5710,7675 5774,7659 5774,7745 5710,7761 Z"/>
          </g>
         </g>
         <g class="com.sun.star.drawing.ClosedBezierShape">
          <g id="id17">
           <rect class="BoundingBox" stroke="none" fill="none" x="5799" y="7595" width="298" height="522"/>
           <path fill="rgb(210,32,32)" stroke="none" d="M 5950,8109 C 5902,8123 5863,8112 5836,8076 5811,8038 5799,7978 5799,7894 5799,7813 5812,7748 5837,7700 5864,7647 5903,7615 5951,7602 5999,7587 6035,7599 6060,7638 6085,7678 6096,7741 6096,7829 L 6096,7834 5887,7899 C 5887,7946 5892,7981 5904,8002 5915,8022 5933,8029 5954,8023 5985,8015 6003,7987 6011,7948 L 6091,7933 C 6069,8028 6022,8088 5950,8109 Z M 5950,7682 C 5931,7688 5914,7702 5904,7726 5893,7750 5888,7781 5888,7818 L 6014,7781 C 6013,7742 6006,7716 5996,7697 5984,7682 5969,7676 5950,7682 Z"/>
          </g>
         </g>
         <g class="com.sun.star.drawing.ClosedBezierShape">
          <g id="id18">
           <rect class="BoundingBox" stroke="none" fill="none" x="6156" y="7474" width="191" height="563"/>
           <path fill="rgb(210,32,32)" stroke="none" d="M 6159,8035 L 6159,7660 C 6159,7634 6159,7611 6158,7593 6157,7576 6157,7560 6156,7545 L 6237,7517 C 6238,7522 6237,7537 6239,7566 6240,7594 6241,7614 6241,7622 L 6242,7621 C 6251,7585 6258,7557 6264,7539 6270,7522 6278,7512 6287,7501 6295,7490 6308,7482 6320,7480 6331,7475 6340,7472 6346,7475 L 6346,7583 C 6333,7582 6321,7585 6311,7587 6288,7596 6273,7615 6261,7644 6250,7675 6244,7716 6244,7765 L 6244,8006 6159,8035 Z"/>
          </g>
         </g>
         <g class="com.sun.star.drawing.ClosedBezierShape">
          <g id="id19">
           <rect class="BoundingBox" stroke="none" fill="none" x="6376" y="7383" width="296" height="541"/>
           <path fill="rgb(210,32,32)" stroke="none" d="M 6671,7693 C 6671,7740 6657,7781 6632,7820 6607,7859 6571,7888 6526,7906 6482,7925 6447,7928 6423,7916 6400,7903 6385,7877 6376,7834 L 6450,7789 C 6454,7811 6462,7824 6472,7830 6482,7836 6500,7832 6526,7821 6550,7811 6567,7801 6578,7788 6588,7775 6593,7757 6593,7738 6593,7722 6589,7713 6581,7706 6572,7700 6558,7700 6537,7700 6490,7708 6457,7706 6440,7700 6423,7696 6411,7685 6402,7668 6393,7652 6390,7629 6390,7601 6390,7555 6401,7514 6425,7479 6448,7444 6483,7416 6526,7399 6565,7381 6595,7380 6619,7393 6642,7406 6657,7432 6663,7473 L 6589,7517 C 6586,7498 6581,7486 6571,7480 6562,7473 6547,7474 6526,7483 6507,7491 6491,7502 6482,7514 6472,7525 6467,7540 6467,7557 6467,7572 6471,7581 6479,7587 6486,7592 6499,7594 6516,7592 6542,7588 6565,7587 6585,7588 6604,7589 6620,7589 6632,7595 6644,7602 6654,7613 6660,7629 6667,7643 6671,7665 6671,7693 Z"/>
          </g>
         </g>
        </g>
       </g>
      </g>
     </g>
    </g>
   </g>
  </g>
 </g>
</svg>